<?xml version="1.0" encoding="utf-8"?>
<!-- Generator: Adobe Illustrator 22.0.1, SVG Export Plug-In . SVG Version: 6.00 Build 0)  -->
<svg version="1.1" id="Layer_1" xmlns="http://www.w3.org/2000/svg" xmlns:xlink="http://www.w3.org/1999/xlink" x="0px" y="0px"
	 viewBox="0 0 1001.7 667.6" style="enable-background:new 0 0 1001.7 667.6;" xml:space="preserve">
<style type="text/css">
	.st0{clip-path:url(#SVGID_2_);fill:#96DBB4;}
	.st1{fill:none;stroke:#231F20;stroke-width:5;stroke-linecap:round;stroke-linejoin:round;stroke-miterlimit:10;}
	.st2{fill:#231F20;}
</style>
<g>
	<g>
		<defs>
			<rect id="SVGID_1_" x="258.1" y="63.2" width="554.8" height="554.7"/>
		</defs>
		<clipPath id="SVGID_2_">
			<use xlink:href="#SVGID_1_"  style="overflow:visible;"/>
		</clipPath>
		<polygon class="st0" points="812.9,340.5 812.7,347.8 811.8,355.2 812.1,362.6 811.4,370 810.5,377.3 809.2,384.6 807.7,391.8 
			806.1,399 805.1,406.3 802.8,413.3 800.8,420.4 798.8,427.5 796.7,434.6 793.9,441.5 790.8,448.2 788.2,455.1 784.8,461.7 
			781.7,468.4 777.9,474.7 774.4,481.2 770.6,487.6 766.9,493.9 762.1,499.6 758,505.7 753.3,511.4 748.7,517.2 743.9,522.8 
			739.3,528.6 734,533.7 728.7,538.8 723.8,544.4 718,548.9 712.6,554 706.7,558.5 701,563.1 694.6,566.9 688.7,571.4 682.8,575.8 
			676.1,579.1 670,583.2 663.2,586.1 656.7,589.6 650,592.7 643.2,595.5 636.6,599 629.7,601.6 622.6,603.4 615.7,606.1 
			608.5,607.9 601.3,609.4 594.1,611 586.9,612.6 579.7,614.3 572.3,615.1 565,616 557.7,617 550.3,616.8 542.9,617.3 535.6,617.8 
			528.2,617.9 520.8,617.1 513.4,616.8 506.1,616.3 498.7,615.3 491.4,614.1 484.2,613 476.9,611.6 469.8,609.6 462.5,608.2 
			455.6,605.5 448.4,603.9 441.4,601.5 434.7,598.3 427.7,596.1 421,593 414.4,589.7 407.8,586.3 401.4,582.6 394.7,579.5 
			388.7,575.2 382.6,571.1 376.4,567 370,563.2 364.7,558.1 358.9,553.5 353.1,549 347.7,543.9 342.1,539.1 336.9,533.8 332,528.4 
			327.2,522.8 322.3,517.3 317.9,511.4 313.3,505.5 308.4,500 304.5,493.7 300.2,487.7 296.5,481.3 293.2,474.7 289.9,468.1 
			286.2,461.7 282.9,455.1 280.2,448.2 277.1,441.5 274.5,434.6 272.1,427.6 270.4,420.4 268.5,413.3 266.6,406.2 264.5,399.1 
			263.6,391.7 262.3,384.5 260.4,377.3 260.4,369.9 259.1,362.6 258.5,355.2 258.5,347.8 258.8,340.5 258.1,333.1 259,325.7 
			259.6,318.4 260.1,311 260.7,303.6 261.9,296.4 262.7,289 264.3,281.8 266.1,274.6 268.2,267.5 270,260.4 271.9,253.2 
			274.5,246.3 277.3,239.5 280.3,232.7 283.5,226.1 286.5,219.4 289.9,212.8 293.1,206.2 296.8,199.8 300.8,193.6 304.8,187.4 
			308.8,181.1 313.2,175.2 317.3,169.1 322.4,163.7 326.9,157.9 332.2,152.7 337,147.1 342,141.7 347.4,136.6 353.3,132.2 
			358.9,127.3 364.6,122.6 370.5,118.3 376.5,114 382.4,109.6 388.3,105.2 394.7,101.3 401.3,98 407.8,94.6 414.2,90.8 420.9,87.7 
			427.7,84.8 434.5,81.9 441.6,80 448.6,77.5 455.6,75.3 462.6,72.9 469.7,70.8 477,69.5 484.2,68.4 491.5,67.3 498.8,66.1 
			506,64.4 513.4,63.8 520.8,63.6 528.2,63.2 535.6,63.3 542.9,63.8 550.3,63.7 557.7,64.1 565,65.1 572.4,65.5 579.6,66.9 
			586.9,68.2 594.2,69.5 601.3,71.5 608.5,73.1 615.7,74.8 622.5,77.7 629.6,79.8 636.5,82.4 643.2,85.5 650.3,87.6 656.9,90.8 
			663.2,94.8 669.9,97.8 676.3,101.7 682.7,105.2 689,109.1 694.9,113.6 700.9,117.9 706.7,122.5 712.5,127 718.2,131.7 723.4,137 
			728.8,142 733.8,147.4 739,152.6 744.2,157.9 748.9,163.6 753.6,169.3 757.9,175.3 762.2,181.3 766.2,187.5 770.4,193.5 
			774.3,199.8 778.1,206.1 781.1,212.8 784.4,219.4 788.1,225.9 791.2,232.6 793.8,239.5 796.7,246.3 798.6,253.4 801.3,260.3 
			803.4,267.4 804.4,274.8 806.4,281.9 808.2,289 808.9,296.4 810.4,303.6 811.5,310.9 811.4,318.4 811.9,325.7 812.4,333.1 		"/>
	</g>
</g>
<polygon class="st1" points="836,380.2 845.1,379 853.8,376.4 862.2,373.2 870.2,368.8 877.2,363.1 883.6,356.8 888.8,349.4 
	892.4,341.5 882.5,341.4 872.4,341.5 862.3,340.8 852.2,340.2 842.1,338.9 850.8,335.9 859.1,332.2 866.9,327.6 874.4,322.4 
	881.2,316.3 887.1,309.3 891.6,301.4 895.3,293.1 884.7,294.8 874.1,296.2 863.6,297.5 872.1,293.7 879,287.4 885.2,280.2 
	891.1,272.8 895.6,264.4 899.9,256 903.4,247.4 906.9,255.7 910.6,264.1 915,272.2 920.2,279.8 926.6,286.4 933.9,291.9 
	942.8,295.3 933.2,299.1 923.1,299.6 913.2,298.2 917.6,306.7 922.3,315.2 927.7,323.2 934.1,330.5 942.6,335.2 951.5,338.6 
	943.5,343.5 933.7,345.1 923.7,345.3 913.8,343.8 919.6,352.2 926.8,359.2 936.1,363 946.2,364.2 956,364.3 949.7,370 942.5,375.2 
	934.4,378.6 926,381.1 917.3,382.6 908.6,383.7 899.5,384.5 890.3,385.7 881.1,386.1 872,386.6 862.8,386.7 853.6,385.7 
	844.7,383.7 "/>
<polyline class="st1" points="892.1,386.8 892,395.9 892,405 "/>
<polyline class="st1" points="907.2,384.1 908.9,394.5 909.4,405 "/>
<polygon class="st1" points="45.6,473.7 54.7,472.5 63.4,469.9 71.9,466.7 79.8,462.4 86.8,456.6 93.3,450.3 98.4,443 102,435 
	92.1,434.9 82,435 71.9,434.3 61.8,433.7 51.7,432.4 60.4,429.4 68.7,425.7 76.6,421.1 84.1,415.9 90.8,409.8 96.7,402.9 
	101.2,394.9 105,386.6 94.3,388.3 83.7,389.7 73.3,391 81.7,387.3 88.7,380.9 94.8,373.7 100.7,366.3 105.2,358 109.5,349.5 
	113,340.9 116.5,349.2 120.2,357.7 124.6,365.7 129.9,373.3 136.2,379.9 143.6,385.4 152.4,388.8 142.8,392.6 132.7,393.1 
	122.8,391.7 127.2,400.2 131.9,408.7 137.3,416.8 143.7,424 152.2,428.7 161.2,432.2 153.1,437 143.3,438.6 133.3,438.8 
	123.4,437.3 129.2,445.7 136.4,452.7 145.8,456.5 155.8,457.7 165.7,457.9 159.3,463.5 152.2,468.7 144,472.1 135.6,474.6 
	127,476.1 118.2,477.3 109.1,478 100,479.2 90.8,479.6 81.6,480.1 72.4,480.2 63.3,479.2 54.3,477.2 "/>
<polyline class="st1" points="101.8,480.4 101.7,489.4 101.7,498.5 "/>
<polyline class="st1" points="116.8,477.6 118.5,488 119.1,498.5 "/>
<g>
	<path class="st2" d="M310.2,556.5v1.4c-0.1,0.8-0.2,1.4-0.4,1.9c-0.2,0.5-0.6,0.8-1.2,1.1c-0.3,0.2-0.8,0.2-1.4,0.2
		c-0.9,0-1.8-0.3-2.6-1l-1.2-1.4l-0.7-0.8l-0.1-0.1v-0.1v-2.5l-0.1-1.6c0-0.9,0.1-1.8,0.3-2.7v-0.5c0-0.6,0-1.1-0.1-1.4l-0.2-0.8
		v-0.1c-0.1-0.4-0.2-0.8-0.2-1.4c-0.1-0.6-0.1-1.2-0.1-2c0-0.8,0.1-1.6,0.3-2.4c0.1-0.5,0.2-1.2,0.2-2.1c0-1.1,0-1.8-0.1-2.4
		c-0.1-0.3-0.1-0.8-0.1-1.5l-0.5-8.6l-0.3-7.2c-0.1-0.9-0.1-2.2-0.1-3.9l-0.1-2.9c0-1.1-0.1-2.8-0.2-5.1c0-1.6-0.1-4-0.2-7.3V499
		c0-1.5,0-2.6-0.1-3.4c0-0.4,0-0.6-0.1-0.8c0-0.1-0.1-0.3-0.1-0.3l-0.2-0.8c-1.1,0.5-3.7,2.8-7.9,7c-4,3.8-6.6,6.2-7.9,7.2
		c-1.1,0.8-3,2.3-5.6,4.4l-2.5,1.8l-2.3,1.7l-5.3,4.2l-3.4,3c-1.4,1.2-2.4,2.1-3,2.6c-0.9,0.8-2,1.2-3.2,1.2c-1.1,0-2.1-0.4-2.9-1.1
		c-0.8-0.6-1.8-1.6-3.2-2.9l-1.9-1.7l-6-5.4c-2.5-2.3-3.7-3.3-3.6-3.3c-1.7-1.5-4.5-4.7-8.7-9.6c-4.1-4.9-6.9-8.2-8.2-10
		c-0.1-0.1-0.2-0.3-0.5-0.8c-0.4,0.2-0.6,0.5-0.6,0.9l0.1,0.2v6.3c0,5.3-0.1,11-0.3,17.1c-0.1,1.5-0.1,3.8-0.1,7v7v5.6l0.2,1.5
		c0,0.3,0,0.5,0.1,0.6c0.2,1.8,0.3,3.5,0.3,5.2c0,1.4-0.1,2.8-0.3,4.2c-0.2,1.8-0.2,3.1-0.2,3.9c-0.2,2.9-0.4,5-0.8,6.4
		c-0.2,0.6-0.8,1.4-2,2.3c-1.2,0.9-2.2,1.4-3,1.6h-0.3c-0.2,0-0.3-0.1-0.5-0.2c-0.8-1-1.1-2.4-1.1-4.2c0-1.1,0.1-2.7,0.5-4.6
		c0.1-0.4,0.1-0.8,0.2-1.2c0.1-0.5,0.1-0.9,0.1-1.5c0.1-0.7,0.1-1.7,0.1-3c0-1.1-0.1-2.8-0.2-5.1l-0.1-2.3l-0.2-3.7
		c-0.1-1.5,0-3.8,0.1-7c0-1.4,0-2.3,0.1-2.9v-0.6l0.1-0.7c-0.3-1.5-0.5-3.1-0.5-4.8l0.1-4.2c0.1-2,0.2-3.5,0.2-4.5v-9.9V493
		c0-0.8-0.1-2.1-0.2-3.7l-0.1-3.4c0-2.8,1.4-4.7,4.3-5.9l0.1-0.1l0.1,0.1c0.2,0.2,0.9,0.2,2,0.2c1.6,0,2.6,0.2,3,0.5
		c0.6,0.3,1,0.8,1.3,1.4c0.3,0.6,0.4,1,0.5,1.1c0.4,0.9,0.8,1.6,1.4,2c0.5,0.5,2.3,2.7,5.3,6.9c7.2,9.5,11.9,15.2,14.1,17
		c0.2,0.2,0.6,0.5,1,0.8c0.2,0.1,0.6,0.3,1,0.6l0.5,0.3c0.9,0.8,1.5,1.4,1.8,1.8c1.6,2.1,3.9,4.1,7.1,5.9l0.5-0.1l0.8-0.6
		c1.3-1.4,2.6-2.7,4.1-3.9c1.4-1.2,3.3-2.6,5.5-4.2l2.9-2.1c1.7-1.2,4.1-3.7,7.3-7.5c3.3-3.9,5.8-6.5,7.4-7.7l1.6-1.5l0.5-0.5
		c0.1-0.1,1.7-1.4,4.5-3.8l4.3-3.6c0.5-0.5,1.4-1.2,2.6-2.1h0.1c0.6-0.5,1.4-0.8,2.3-0.8c0.8,0,1.5,0.2,1.9,0.6
		c1.6,0.8,2.3,2.1,2.1,3.7c-0.1,1.1-0.1,2.8-0.1,5.1c0,3.5,0.2,7.8,0.6,13.1c0.1,0.8,0.1,1.9,0.1,3.5c0,2.1,0,3.7-0.1,4.7v3.8v0.6
		c-0.1,0.7-0.1,1.3,0,1.8c0.4,2.2,0.6,4.5,0.7,7c0.1,2.5,0.1,4.1,0.1,4.7v4.8c0.1,4.1,0.3,7.1,0.5,9.1l0.3,8V556.5z"/>
	<path class="st2" d="M413.2,517.4c0,0,0,0.6,0,1.7c0,9.2-2.1,17.3-6.2,24.1l-1,1.5c-1.5,2.6-2.8,4.4-3.8,5.6
		c-1.4,1.6-3.8,3.8-7.2,6.8c-3.5,2.9-5.5,4.5-6.1,4.7c-0.3,0.1-1.4,0.4-3.4,1c-2,0.6-4,0.9-6,1.1h-0.5l-3.4,0.1
		c-1.9,0-3.5-0.2-5-0.6c-0.7-0.2-1.5-0.4-2.4-0.5c-0.9-0.1-1.5-0.2-1.9-0.3l-3-0.6h-0.1c-3-0.6-5.2-1.2-6.5-1.7l-0.7-0.2
		c-4.1-1.5-7.3-2.9-9.5-4.3c-2-1.3-3.8-2.9-5.3-4.8l-1.1-1.7c-0.9-1.1-1.5-1.9-1.8-2.5c-0.5-0.7-0.9-1.5-1.1-2.4l-0.3-0.8l-0.9-2.4
		l-0.6-1.4l-0.5-0.9c-0.5-1.1-0.7-1.8-0.8-2.4c-0.2-1.7-0.9-3.9-2.1-6.6l-0.2-0.6l0.1-0.1c0-0.3,0.1-0.7,0.2-1.1l0.7-3
		c0.1-2,0.2-3.5,0.2-4.7v-0.1c-0.1-1.1,0-2.1,0.1-2.9c0.1-0.8,0.5-1.6,1-2.4c0.6-0.8,1.1-2.1,1.4-4.1v-0.3c0.2-1.3,0.7-2.4,1.5-3.3
		c1.4-2,2.2-3.8,2.4-5.4c0.2-1.4,0.7-2.4,1.6-3.3c0.5-0.5,1.1-1.1,1.6-1.8c1.8-3,4.8-5.9,9-8.8c0.3-0.1,0.5-0.3,0.7-0.5
		c0.2-0.2,0.4-0.4,0.5-0.5l0.5-0.5c0.9-0.8,1.9-1.5,2.9-1.9c1.1-0.5,2.3-0.9,3.7-1.4l1.1-0.3c3.4-1.1,7.1-1.7,11.3-1.7
		c0.9,0,2.3,0.1,4.3,0.2c0.5,0,1,0,1.5,0.1c0.6,0.1,1,0.2,1.3,0.2l1.7,0.3c6.1,0.9,11.1,2.8,15.1,5.6c1.9,1.4,4.4,3.6,7.7,6.6
		l0.3,0.3c1.1,1.1,2.1,2.3,2.9,3.7c0.8,1.4,1.7,3.1,2.6,5c0.8,1.7,1.5,3.4,2,5.1c0.2,0.9,0.5,1.9,0.7,3.1c0.2,1.2,0.4,2,0.5,2.5
		C413,516.4,413.2,517.4,413.2,517.4z M407.1,520.4c0-3.3-0.6-6.8-1.8-10.4c-2-5.9-4.8-10.3-8.7-13.2c-0.2-0.1-0.9-0.6-2.1-1.5
		l-1.9-1.2c-3.6-2.7-7.8-4.5-12.7-5.4c-3.8-0.6-6.8-0.9-9.1-0.9c-2.6,0-5.2,0.3-7.9,1c-3.3,0.8-6.4,2.3-9.4,4.7
		c-2,1.6-3.9,3.6-5.7,6.1c-0.5,0.7-0.9,1.3-1.1,1.9c-0.5,1.2-1.3,2.9-2.5,5.2c-1.6,3.1-2.6,5.6-3.2,7.4l-0.5,0.9
		c-0.2,0.3-0.2,0.5-0.2,0.7l-0.1,0.2c-0.3,1.1-0.5,1.8-0.5,2.1c0,2.4-0.3,5-1,7.9c-0.2,0.6-0.2,1.1-0.2,1.4c0,0.4,0.1,1.1,0.5,2.1
		c0.2,0.5,0.4,1,0.6,1.7c0.2,0.7,0.3,1.2,0.4,1.6l0.3,1.4c0,0.2,0.1,0.5,0.2,0.9c0.1,0.8,0.3,1.4,0.5,1.8c1.2,2.9,2.3,5.1,3.2,6.6
		c2.3,4.4,4.8,7.2,7.8,8.6c3.1,1.4,6.4,2.7,10,3.7c1.8,0.5,3.8,1,5.9,1.4c1,0.2,2.4,0.5,4.4,0.9c0.2,0.1,0.8,0.1,1.8,0.1
		c1.7,0,3.7-0.1,6.1-0.4c2.4-0.3,3.8-0.5,4.2-0.6c0.8-0.3,2.2-1.2,4.3-2.6c2.1-1.4,3.3-2.3,3.6-2.5c3.5-2.6,6.3-5.7,8.2-9.1
		c1.4-2.6,2.3-4.5,2.9-5.9c0.8-1.7,1.6-3.7,2.4-6c0.3-1.3,0.5-2.3,0.6-3.2l0.2-1.8C406.9,524,407.1,522.1,407.1,520.4z"/>
	<path class="st2" d="M435.2,553.4c0.4,0.1,1.2,0.2,2.5,0.2c1.3,0.1,2.4,0.4,3.4,0.9c4.7,2.5,10.3,3.7,16.8,3.7
		c1.5,0,3.8-0.2,6.8-0.7c2-0.3,3.8-1.2,5.5-2.7c0.5-0.5,1.4-1.1,2.5-2.1c1.2-0.9,2.1-1.8,2.8-2.5c2.9-3.1,4.4-6.8,4.4-11
		c0-1.4-0.2-2.7-0.7-3.7c-0.5-1.1-1.2-2.1-2.3-3c-3.3-3.2-6.8-5.4-10.6-6.8l-3.6-1.4c-6.1-2.4-11.1-4-15-4.7
		c-0.8-0.1-2.2-0.9-4.2-2.4c-2.1-1.5-3.4-2.7-3.9-3.4c-2.2-3.3-3.3-7.2-3.3-11.6c0-2.6,0.4-5.6,1.1-8.8c0.3-1.3,0.8-2.3,1.5-2.9
		c2.1-2.2,3.9-3.8,5.4-4.7c2.4-1.4,5.1-2.7,8-3.7c2.5-0.8,5.1-1.1,7.9-1.1c1.9,0,3.9,0.2,6,0.6c1.5,0.3,2.7,0.6,3.7,0.9
		c1,0.3,1.9,0.8,2.8,1.4c0.7,0.5,1.3,0.8,1.6,1.1c0.2,0.3,0.3,0.6,0.3,1c0,0.5-0.1,0.8-0.4,1.2c-0.3,0.3-0.6,0.5-1.1,0.6
		c-1.5,0.2-2.8,0.1-3.8-0.1c-3.5-0.8-6.3-1.2-8.4-1.2c-5.7,0-11,2.1-15.8,6.3c-1,0.8-1.6,1.8-1.9,3c-0.3,1.2-0.5,2.6-0.6,4.2
		c0,0.8-0.1,1.5-0.2,2.2c-0.1,0.7-0.2,1.3-0.2,1.7c0,1.1,0.2,2.3,0.6,3.4c0.8,3.5,3.4,5.9,7.8,7.3c0.9,0.3,1.7,0.5,2.4,0.7
		c0.7,0.2,1.2,0.3,1.7,0.3l3.9,1c0.5,0.2,2,0.7,4.7,1.6s5.3,1.9,7.7,3c4.1,1.9,7.3,4.2,9.8,7.1c1.7,2,2.9,3.7,3.8,5.4
		c0.9,1.6,1.3,3.4,1.3,5.4c0,0.8,0,1.5-0.1,1.9c-0.1,0.5-0.1,1.2-0.1,2.1c0,0.9-0.1,1.7-0.4,2.4l-1.1,2.3c-0.8,1.6-1.4,2.9-2.1,3.9
		c-0.6,1.1-1.4,2-2.4,2.9l-2.4,2.3c-2,2-3.8,3.5-5.2,4.3c-3,1.8-6.9,2.7-11.8,2.7c-7.7,0-14.4-1.2-20.2-3.5c-1-0.4-2.4-1.2-4.2-2.6
		c-0.8-0.8-1.2-1.7-1.2-2.5C434.7,554.5,434.9,554,435.2,553.4z"/>
	<path class="st2" d="M553.1,516.7c0.4,0.6,0.8,1.1,1.2,1.5c0.5,0.4,1,0.7,1.6,1.1c0.6,0.3,1.1,0.6,1.5,0.8c1.5,1,2.9,2,4.1,3.2
		c1.6,1.1,2.9,3.2,4.1,6.2c0.4,0.9,0.6,2,0.6,3.2c0,1.2,0.1,2.1,0.1,2.5c0.1,1.8,0.1,4.6,0.1,8.4c0,2.9-0.6,5.6-1.7,7.9
		c-2.3,4.4-5.4,7.2-9.6,8.3c-3.8,1.1-7.9,1.8-12.4,2c-0.5,0-2.3,0-5.2,0.1c-2.9,0.1-5.7,0.3-8.3,0.8c-0.4,0.1-1,0.1-1.8,0.1
		c-1.1,0-2,0-2.6-0.1l-2.8-0.1c-1.1,0-3-0.1-5.5-0.2c-1.1,0-1.8-0.1-2.3-0.3c-2.3-0.5-3.6-2-3.8-4.6c-0.1-0.4-0.2-0.8-0.2-1.4
		c-0.1-0.6-0.1-1.3-0.1-2.1c0-0.6,0-1.1,0.1-1.4c0.1-0.2,0.2-0.7,0.3-1.3c0.1-0.6,0.2-1.3,0.2-1.9l-0.1-0.9c0.3-1,0.5-2.1,0.5-3.5
		c0-1.1,0-2-0.1-2.5c0-0.4,0-0.9-0.1-1.5c0-0.6,0-1.3,0.1-2c0-0.6,0.1-1.4,0.2-2.5l0.1-2.3v-7.7c0-1.7,0-3.7-0.1-6.1
		c-0.1-2.4-0.2-4.4-0.2-5.9c-0.1-1.5-0.3-3.7-0.6-6.5c-0.5-4.7-0.8-8.8-0.8-12.3c0-1.4,0.1-3.8,0.2-7.1v-4.5
		c0.2-0.5,0.7-1.1,1.4-1.9c0.8-0.8,1.7-1.2,2.7-1.2h0.5h3.9c1.7,0,3,0,3.9,0.1c0.7,0,2.3,0,4.8,0.1c2.5,0.1,4.8,0.3,6.9,0.6
		c5.9,0.7,11.2,2.5,15.9,5.5c1.1,0.8,2,1.7,2.9,2.9c0.9,1.2,1.4,2,1.6,2.3c0.9,1.4,1.6,2.8,2.2,4.4c0.6,1.6,1,3.4,1.2,5.3
		c0.3,1.9,0.4,3.1,0.5,3.7c0.2,2.3-0.3,4.2-1.6,5.7c-0.7,1.1-1.5,2.1-2.6,3.3C554,515.5,553.6,516,553.1,516.7z M530.9,521.8
		c-0.5,0.2-1,0.1-1.4-0.1c-0.4-0.2-0.7-0.5-1-1.1c-0.3-0.5-0.5-0.9-0.7-1.1l-0.2-1c0-0.5,0.3-1.2,1-2.1c0.5-0.9,2.2-1.3,5.2-1.1
		c0.5,0.1,1.6,0.2,3.3,0.5c1.7,0.2,3.4,0.3,5.1,0.3c1.7,0,3-0.4,3.9-1.1c3.3-2.3,5-5.4,5-9.4c0-1.9-0.3-3.7-0.8-5.5
		c-0.6-1.8-1.4-3.7-2.4-5.9c-0.5-1-1.6-2-3.2-3c-2.9-1.6-6.2-2.7-10-3.3c-1.7-0.2-3.5-0.4-5.5-0.5c-2-0.1-3.3-0.1-4-0.1
		c-2.2,0-3.8,0-4.8-0.1c-0.8,0-1.5,0-2.3,0.1c-0.8,0.1-1.5,0.1-2.4,0.1c-0.1,0.5-0.2,0.8-0.2,1.2c-0.1,0.3-0.2,0.7-0.2,1
		c-0.2,2.3-0.3,4.5-0.3,6.8c0,2.2,0.1,4.1,0.5,5.9l0.2,2.6c0.3,2.6,0.5,4.5,0.5,5.9c0,1.2,0,2.1-0.1,2.7c-0.2,0.8-0.1,2.9,0.3,6.1
		c0.3,3.2,0.5,5,0.5,5.3c-0.2,1.3-0.3,2.7-0.3,4.4c-0.1,1.7-0.1,2.8-0.1,3.5v5.4c0,2.4,0,4.2,0.1,5.4c0.1,0.5,0.1,1.1,0.1,2
		c0,2.3-0.5,4.3-1.6,6.1c0.3,0.8,0.8,2.6,1.5,5.6c0.3,0.1,0.6,0.2,1,0.2c0.4,0.1,0.8,0.1,1.4,0.1h8.8c0.6,0.2,1.2,0.2,1.8,0
		c2-0.3,4.3-0.5,6.9-0.5c1.8,0,3.2,0,4.1-0.1c0.7,0,1.8,0,3.3-0.1c1.5-0.1,3.1-0.2,4.7-0.4c1.6-0.2,3.2-0.5,4.9-1
		c2.3-0.6,4-1.9,5.1-3.9c0.8-1.6,1.3-3.1,1.5-4.6c0.3-2.9,0.5-5,0.5-6.4c0-2.7-0.3-5.8-0.8-9.3c-0.4-2.1-1.4-3.7-2.9-4.7l-2.8-1.7
		c-0.4-0.2-0.8-0.5-1.3-0.8c-0.5-0.3-1-0.6-1.6-0.9c-1.5-0.8-2.7-1.3-3.5-1.4c-3.5-0.1-6.1-0.2-7.9-0.2c-1.5,0-2.7,0-3.5,0.1
		c-0.7,0.1-1.5,0.1-2.5,0.1C532.5,521.7,531.7,521.7,530.9,521.8z"/>
	<path class="st2" d="M633.5,558.7c0,0.7-0.2,1.2-0.5,1.6c-0.3,0.4-0.5,0.7-0.6,0.7l-0.3,0.5l-0.1,0.2l-1,0.1
		c-2.1,0.5-3.7,0.7-4.7,0.7c-0.8,0-1.5,0-2-0.1c-1.2-0.2-3.2-0.3-6.1-0.3l-3.4-0.2c-2-0.1-4.1,0-6.3,0.2c-0.5,0-1.4,0.1-2.8,0.2
		c-1.4,0.1-2.6,0.1-3.8-0.1l-3.6-0.2l-1.9-0.1h-0.6l-1.8-0.1c-2.5-0.6-3.6-2.1-3.5-4.5l0.3-3.2l0.1-1.5l0.1-0.6c0-0.1,0-0.4,0.1-0.7
		c0-0.3,0-0.6-0.1-0.8c0-2.9-0.1-6.7-0.2-11.5v-1.5v-4.6l0.1-11c0-1.9-0.1-3.6-0.3-5.3c-0.7-4.4-1.1-10.1-1.4-16.9
		c-0.2-3.3-0.2-5.4-0.2-6.4c-0.2-2.3-0.2-4-0.2-5.3c0-0.3,0-0.5-0.1-0.7c0-0.2-0.1-0.4-0.1-0.5c-0.1-0.1-0.1-0.7-0.1-1.7
		c0-1.7,0.9-2.7,2.7-3c2.1-0.3,4.4-0.5,6.9-0.5c1.5,0,2.4,0.1,2.7,0.2h4.5c5.9,0,10.2,0.1,13.1,0.3c1.2,0.1,2.2,0.1,3.1,0.1
		c0.9,0,1.6-0.1,2.1-0.1c1.6-0.1,3.2-0.1,4.8,0c1.2,0,2.1,0.3,2.8,0.9c0.9,0.5,1.4,1.2,1.4,2v0.2c0,0.7-0.3,1.3-0.9,1.9
		c-0.8,1-1.9,1.5-3.4,1.5l-5.1-0.1c-3.6,0-6.3-0.2-8-0.7c-0.8-0.1-1.7-0.2-2.8-0.2s-1.7,0-2.1,0c-0.8,0.1-1.9,0.1-3.4,0.1
		c-1.3-0.1-4,0-8.2,0.1c-1.1,0.1-2.5,0.1-4.2,0.1c-0.1,0.6-0.1,1.4-0.1,2.3c0,1.1,0,1.9,0.1,2.5c0.1,0.5,0.1,1.2,0.1,2.3
		c0.1,0.9,0.2,1.7,0.3,2.3c0,0.6,0.1,1.2,0.1,1.6c0.1,2.4,0.2,4.2,0.2,5.3c0,2.9,0.3,6.6,0.9,10.9c0.2,0.1,0.6,0.1,1.1,0.1
		c1.2,0.2,2.1,0.2,2.8,0.2c1.8-0.1,3.2-0.2,4.1-0.2c1.4,0,3.5,0.1,6.2,0.2c0.4,0,0.8,0,1.4,0.1c0.5,0,1.2,0.1,1.9,0.3
		c0.8,0,1.6,0,2.3-0.1c0.7-0.1,1.2-0.1,1.7-0.2c0.7-0.1,1.7-0.1,3.2-0.1c1.4,0,2.9,0.2,4.6,0.5c1.6,0.3,2.6,0.5,3,0.6l0.8,0.1
		c1.1,0.2,1.8,0.7,2.1,1.7c0.2,0.5,0.3,0.9,0.3,1.2c0,0.6-0.4,1.2-1.1,1.7c-1.1,0.8-2.6,1.2-4.3,1.4c-0.7,0-1.2,0-1.5-0.1
		c-1.2-0.1-3-0.1-5.5-0.1c-1.3,0-3.1-0.1-5.5-0.2l-0.6-0.1c-0.1,0-0.2,0-0.3-0.1c-0.1,0-0.2,0-0.3,0.1c-0.4,0.1-1,0.1-1.8,0.1
		c-0.8,0-2.1-0.1-3.9-0.2c-1.7-0.1-2.9-0.2-3.6-0.2c-0.8,0-1.3,0-1.7-0.1h-1.8c-1.2,0-2.1,0.1-2.6,0.2c-0.1,0.1-0.1,0.2-0.1,0.5
		c-0.1,0.3-0.1,0.8-0.1,1.4c-0.2,3.9-0.2,6.7-0.2,8.4c0,1.9,0.1,4.5,0.2,7.8v0.3c-0.1,0.5-0.1,1.2-0.1,2.1c0,1.1,0,2.1,0.1,2.9
		c0.1,0.8,0.1,1.5,0.2,2.1c0.1,2.3,0.2,3.8,0.2,4.5v1.1v1.4c0,0.7,0,1.2,0.1,1.5v0.6c1.4,0.2,2.4,0.2,3.2,0.2c1.1,0,2.7-0.1,4.8-0.2
		c1.6-0.2,3.1-0.3,4.6-0.3c1.1,0,2,0,2.5,0.1c1.1,0.2,3,0.2,5.7,0.2h4.1l5.4-0.1c0.9,0,2.1,0.1,3.6,0.2h0.1l1.8,1.4l0.1,0.1
		C633.5,558,633.5,558.3,633.5,558.7z"/>
	<path class="st2" d="M710.8,556.7c0,0,0.1,0.5,0.3,1.5c0.1,0.5,0.2,0.8,0.2,1.1c0,0.5-0.1,0.9-0.3,1.2c-0.3,0.6-0.9,1-1.8,1.1
		c-0.3,0.1-0.6,0.1-1,0.1c-1.2,0-2.2-0.4-2.9-1.1l-7.2-6.6l-3.8-3.6l-5.1-4.8l-2.7-2.8l-2.3-2.4l-2.5-2.5c-2.2-2.4-4.5-4.7-7-7
		c-0.8-0.7-2.7-2.1-5.5-4.2l-2.1-1.5l-3.2,1.9c-0.2,1-0.3,2.6-0.3,5l0.1,1.9c0,1.9,0.1,3.7,0.3,5.5l0.1,2.5l0.1,0.2
		c0,0.5,0,0.8-0.1,1.1c-0.4,1.3-0.5,3.3-0.3,6.2c0.1,0.6,0.1,1.5,0.1,2.6c0,0.8,0,1.4-0.1,1.8c-0.1,1.1-0.1,2.4-0.1,3.8
		c0,0.7-0.2,1.3-0.5,1.7c-0.3,0.5-0.8,1-1.4,1.6c-0.5,0.4-1,0.6-1.5,0.6c-0.5,0-1-0.2-1.5-0.7c-0.9-0.7-1.4-1.7-1.4-2.9V553
		c0-4.1,0.1-7.2,0.5-9.4v-1.4c-0.2-3.2-0.3-8-0.3-14.4v-7.2c0-6,0-10.5-0.1-13.5v-2l-0.1-1.9c-0.2-3.5-0.2-5.8-0.2-7l-0.1-3.5v-6.2
		v-2.7v-0.2l0.1-0.1c1-1.1,1.8-1.6,2.6-1.6c0.8,0,1.9,0.5,3.4,1.6l0.2,0.1v0.2v2.7c0,2.8-0.1,4.9-0.3,6.3c-0.2,2.1-0.2,3.6-0.2,4.5
		c0,1.6,0.1,3.1,0.3,4.6c0.3,1.9,0.5,4.8,0.5,8.8c0,0.2,0,0.5-0.1,0.9c0,0.4,0,0.8,0.1,1.4c0,2.6,0.2,4.6,0.6,5.9
		c1.8-1.1,3.7-2.6,5.7-4.5c0.1-0.1,0.7-0.6,1.6-1.2c2-1.3,4.4-3.5,7.4-6.6l2.1-2.3l1.7-1.7c-0.1,0.1,1-0.9,3.2-2.8l7.7-8.1
		c1.6-1.8,3.5-3.7,5.6-5.7c0.3-0.4,0.8-0.9,1.6-1.5l0.8-0.7l0.2-0.2l3.4,2l0.1,0.1c0.3,0.5,0.5,1,0.5,1.5c0,0.7-0.3,1.4-1,2
		l-1.2,1.1l-9.2,9.6c-3.6,3.9-6.7,6.9-9.2,9l-2.6,2.6c-0.3,0.3-0.6,0.7-1,1.1c-0.4,0.4-0.8,0.8-1.2,1.3c-0.5,0.5-1.2,1.1-2.1,1.9
		c-0.9,0.7-1.6,1.3-2,1.6l-2.4,2.1c-0.2,0.1-0.5,0.2-0.7,0.5c-0.3,0.3-0.5,0.5-0.7,0.6c0,0.2-0.1,0.3-0.3,0.6
		c0.1,0.2,0.3,0.3,0.4,0.4c0.1,0.1,0.2,0.2,0.4,0.4c0.7,0.7,1.4,1.3,2.1,1.8c2.9,1.9,5.5,4,7.7,6.4c1.1,1.1,2,1.9,2.6,2.4
		c0.4,0.5,0.8,0.9,1.4,1.4c0.5,0.5,1.1,1.1,1.7,1.9c1.1,1.4,2.9,3.3,5.5,5.7l0.9,0.9l4.3,4.1c2.6,2.6,4.5,4.4,5.9,5.6
		c0.5,0.5,1.7,1.4,3.6,2.8l0.5,0.5C710.1,556.3,710.8,556.7,710.8,556.7z"/>
	<path class="st2" d="M793.4,557.1c0,0,0.1,0.2,0.5,0.5c0.3,0.3,0.5,0.6,0.6,1c0.1,0.4,0.1,0.8-0.1,1.2c-0.5,1.4-1.4,2.2-2.6,2.3
		h-0.5h-0.7c-0.1-0.1-0.2-0.1-0.3-0.1h-0.2c-1.4-1.2-2.5-2.4-3.4-3.5c-0.2-0.1-0.4-0.3-0.6-0.5c-0.2-0.1-0.3-0.3-0.5-0.3
		c-1.4-1.5-3.2-3.2-5.2-5c-0.5-0.3-1-0.7-1.5-1.2c-0.6-0.5-1-0.9-1.4-1.2c-1.1-0.9-2.6-2.3-4.5-4.1l-0.9-0.8
		c-0.3-0.4-0.8-0.9-1.6-1.5l-1.1-1.2l-2-1.8c-1.1-1.2-2.7-2.7-4.8-4.5c-2-1.7-5-4.2-9-7.3l-1.2-1.1c-0.7-0.6-1.4-1.1-2-1.6
		c-0.7-0.5-1.3-0.9-1.8-1.3l-1.8-1.4l-0.9-0.5l-0.3-0.1l-2.8,1.7c-1.2,0.8-1.8,1.7-1.8,2.7c0,2.1,0,3.7-0.1,4.7c0,3.3,0,5.7,0.1,7.3
		c0,1.4,0.1,3.6,0.2,6.6l0.1,3.3v0.8v0.7c0.1,1,0.2,1.8,0.2,2.6c0,0.8,0,1.4,0.1,1.8c0,0.6,0,1.1,0.1,1.5l0.1,1.9
		c0,1.2-0.5,2-1.4,2.3c-0.8,0.3-1.4,0.5-1.8,0.5c-0.5,0-1-0.2-1.5-0.7c-0.9-0.7-1.4-1.7-1.4-3c-0.2-1.8-0.3-3.6-0.3-5.5
		c0-0.8-0.1-1.8-0.2-3.2c-0.2-2.6-0.2-4.4-0.2-5.6v-8.6c0.1-1,0.2-2.3,0.2-3.9v-3.6v-2.6c0-0.7,0-1.5,0.1-2.4c0-0.9,0-2-0.1-3.1
		c0-2.5-0.1-4.3-0.2-5.5c-0.2-2.7-0.2-4.8-0.2-6.4c0-3.5,0.1-7.4,0.5-11.7l0.1-1.6c0.2-3,0.2-5.4,0.2-7.1c0-1.5,0-2.6-0.1-3.4
		l0.1-0.3V483v-0.1l0.2-0.1c1-0.6,1.7-0.9,2-0.9c0.3,0,1.2,0.4,2.7,1.1h0.2c0.5,1,0.7,2,0.5,3c-0.2,1.4-0.2,2.6,0,3.7
		c0.1,0.5,0.1,1.1,0.1,2c0,1.6-0.2,3.1-0.6,4.6c-0.2,0.5-0.2,1.1-0.2,1.7c0,0.6,0,1.1,0,1.3v1.2c-0.1,3.9,0.1,9.4,0.6,16.3
		c0,0.3,0,0.5,0.1,0.7c0.7-0.3,1.5-0.9,2.3-1.9l1.7-1.5l4.1-3.4l0.3-0.1l4.4-3.7c1.4-1.1,2.2-1.8,2.5-2l1.9-1.8l0.6-0.6l3.6-2.8
		c0.6-0.5,1.2-1,1.7-1.4c0.5-0.4,1-0.8,1.5-1.1l1.4-1c0.1-0.1,0.6-0.5,1.4-1.1c1.4-0.8,2.4-1.6,3.2-2.4c2.3-1.9,3.5-2.9,3.6-2.9
		l0.8-0.8c0.3-0.1,0.6-0.4,1-0.8c0.1-0.1,0.6-0.5,1.4-1.1c0.8-0.6,1.6-1.1,2.5-1.5h0.1c1,0.5,1.7,1,2.2,1.4c0.5,0.4,0.8,1,1.1,1.7
		v0.2c-0.6,1-1.6,2-2.9,2.9l-0.7,0.7c-0.5,0.3-1.1,0.7-1.7,1.2c-0.6,0.5-1.1,0.8-1.4,1.1c-0.5,0.5-1.6,1.3-3.1,2.6
		c-1.5,1.3-3,2.4-4.3,3.3c-2.9,1.8-5.3,3.8-7.3,6.1c-0.7,0.8-1.5,1.5-2.5,2.4c-1,0.8-1.7,1.4-2.2,1.8l-0.9,0.8l-2.1,1.7l-1.8,1.4
		c-1.6,1.4-2.5,2.1-2.8,2.4l-0.8,0.8l-0.3,0.3c1.1,1.1,2,1.8,2.8,2.3c0.2,0.2,0.3,0.3,0.5,0.5c0.1,0.2,0.3,0.3,0.5,0.5
		c0.5,0.2,1.2,0.8,2.1,1.6c2.9,2.3,5,3.9,6.3,4.8c0.4,0.3,1.9,1.5,4.6,3.7c2.7,2.2,5.1,4.4,7.3,6.8c1.9,2,3.7,3.7,5.5,5.2
		c0.3,0.4,0.7,0.8,1.2,1.2c0.5,0.4,0.9,0.7,1.1,0.8c1.4,1.3,2.7,2.6,4.2,3.8l1.7,1.4c0,0.1,0,0.1,0.1,0.1c0.1,0,0.1,0,0.2,0.1
		c0.1,0.2,0.3,0.3,0.4,0.4c0.1,0.1,0.2,0.2,0.4,0.4c0.7,0.4,1.5,1.2,2.4,2.4c0.7,0.9,1.5,1.7,2.4,2.3l0.3,0.5
		C793.3,557,793.4,557.1,793.4,557.1z"/>
	<path class="st2" d="M862.7,558.7c0,0.7-0.2,1.2-0.5,1.6c-0.3,0.4-0.5,0.7-0.6,0.7l-0.3,0.5l-0.1,0.2l-1,0.1
		c-2.1,0.5-3.7,0.7-4.7,0.7c-0.8,0-1.5,0-2-0.1c-1.2-0.2-3.2-0.3-6.1-0.3l-3.4-0.2c-2-0.1-4.1,0-6.3,0.2c-0.5,0-1.4,0.1-2.8,0.2
		c-1.4,0.1-2.6,0.1-3.8-0.1l-3.6-0.2l-1.9-0.1h-0.6l-1.8-0.1c-2.5-0.6-3.6-2.1-3.5-4.5l0.3-3.2l0.1-1.5l0.1-0.6c0-0.1,0-0.4,0.1-0.7
		c0-0.3,0-0.6-0.1-0.8c0-2.9-0.1-6.7-0.2-11.5v-1.5v-4.6l0.1-11c0-1.9-0.1-3.6-0.3-5.3c-0.7-4.4-1.1-10.1-1.4-16.9
		c-0.2-3.3-0.2-5.4-0.2-6.4c-0.2-2.3-0.2-4-0.2-5.3c0-0.3,0-0.5-0.1-0.7c0-0.2-0.1-0.4-0.1-0.5c-0.1-0.1-0.1-0.7-0.1-1.7
		c0-1.7,0.9-2.7,2.7-3c2.1-0.3,4.4-0.5,6.9-0.5c1.5,0,2.4,0.1,2.7,0.2h4.5c5.9,0,10.2,0.1,13.1,0.3c1.2,0.1,2.2,0.1,3.1,0.1
		c0.9,0,1.6-0.1,2.1-0.1c1.6-0.1,3.2-0.1,4.8,0c1.2,0,2.1,0.3,2.8,0.9c0.9,0.5,1.4,1.2,1.4,2v0.2c0,0.7-0.3,1.3-0.9,1.9
		c-0.8,1-1.9,1.5-3.4,1.5l-5.1-0.1c-3.6,0-6.3-0.2-8-0.7c-0.8-0.1-1.7-0.2-2.8-0.2s-1.7,0-2.1,0c-0.8,0.1-1.9,0.1-3.4,0.1
		c-1.3-0.1-4,0-8.2,0.1c-1.1,0.1-2.5,0.1-4.2,0.1c-0.1,0.6-0.1,1.4-0.1,2.3c0,1.1,0,1.9,0.1,2.5c0.1,0.5,0.1,1.2,0.1,2.3
		c0.2,0.9,0.2,1.7,0.3,2.3c0,0.6,0.1,1.2,0.1,1.6c0.2,2.4,0.2,4.2,0.2,5.3c0,2.9,0.3,6.6,0.9,10.9c0.2,0.1,0.6,0.1,1.1,0.1
		c1.2,0.2,2.1,0.2,2.8,0.2c1.8-0.1,3.2-0.2,4.1-0.2c1.4,0,3.5,0.1,6.2,0.2c0.4,0,0.8,0,1.4,0.1c0.5,0,1.2,0.1,1.9,0.3
		c0.8,0,1.6,0,2.3-0.1c0.7-0.1,1.2-0.1,1.7-0.2c0.7-0.1,1.7-0.1,3.2-0.1c1.4,0,2.9,0.2,4.6,0.5c1.6,0.3,2.6,0.5,3,0.6l0.8,0.1
		c1.1,0.2,1.8,0.7,2.1,1.7c0.2,0.5,0.3,0.9,0.3,1.2c0,0.6-0.4,1.2-1.1,1.7c-1.1,0.8-2.6,1.2-4.3,1.4c-0.7,0-1.2,0-1.5-0.1
		c-1.2-0.1-3-0.1-5.5-0.1c-1.3,0-3.1-0.1-5.5-0.2l-0.6-0.1c-0.1,0-0.2,0-0.3-0.1c-0.1,0-0.2,0-0.3,0.1c-0.4,0.1-1,0.1-1.8,0.1
		c-0.8,0-2.1-0.1-3.9-0.2c-1.7-0.1-2.9-0.2-3.6-0.2c-0.8,0-1.3,0-1.7-0.1h-1.8c-1.2,0-2.1,0.1-2.6,0.2c-0.1,0.1-0.1,0.2-0.1,0.5
		c-0.1,0.3-0.1,0.8-0.1,1.4c-0.2,3.9-0.2,6.7-0.2,8.4c0,1.9,0.1,4.5,0.2,7.8v0.3c-0.1,0.5-0.1,1.2-0.1,2.1c0,1.1,0,2.1,0.1,2.9
		c0.1,0.8,0.1,1.5,0.2,2.1c0.1,2.3,0.2,3.8,0.2,4.5v1.1v1.4c0,0.7,0,1.2,0.1,1.5v0.6c1.4,0.2,2.4,0.2,3.2,0.2c1.1,0,2.7-0.1,4.8-0.2
		c1.6-0.2,3.1-0.3,4.6-0.3c1.1,0,2,0,2.5,0.1c1.1,0.2,3,0.2,5.7,0.2h4.1l5.4-0.1c0.9,0,2.1,0.1,3.6,0.2h0.1l1.8,1.4l0.1,0.1
		C862.6,558,862.7,558.3,862.7,558.7z"/>
</g>
<polyline class="st1" points="316.8,257.1 316.4,269.9 315.7,282.6 315,295.4 314.4,304.9 314.8,314.5 314.7,324.1 315.1,336.2 
	316,348.2 316.3,360.2 317.6,372.3 316.1,374.9 327.6,375.4 339.3,375 351,374.9 362.6,375 374.3,374.8 385.2,375.5 396.1,374.9 
	409.3,375 422.4,375.6 431.3,374.9 "/>
<polyline class="st1" points="431,378.2 440.7,369.8 451.8,375.1 453.9,378.3 455.6,369.1 462.5,363.1 473.5,362.6 484.5,363 
	484.8,366.3 495.7,364.4 498.3,372.7 498.4,375.4 515.7,374.9 524.8,375.4 525,363.7 524.6,352.1 524.6,340.6 525,329 524.2,317.5 
	524.3,305.9 524.4,294.3 532.3,288.5 540,282.6 547.6,277 540.9,267.8 534,258.6 526.6,249.7 519.6,240.6 512.8,231.2 505.3,222.5 
	498.3,213.2 491.2,204.2 484.3,194.9 477.2,185.8 470.2,176.6 467.2,173.2 459.5,163.7 452.8,157.7 446.2,151.7 437.2,158.9 
	428.2,165.7 420.2,172.8 411.8,179.6 402.6,189 392.5,197.4 385.3,204 378,210.4 370.9,217.1 361.7,224.3 353.2,232.5 344.2,240 
	335.1,245.5 326.1,251.3 317.2,257 305.9,265 294.2,272.3 286.2,281.7 282.1,284.2 294.4,285.6 306.8,286.7 315.2,286.7 "/>
<polyline class="st1" points="494.7,208.5 488.9,208.1 477.5,208.7 470.5,208.8 460,207.6 449.7,205.7 440.5,205.3 431.3,205.5 
	416.9,206.1 405.8,205.6 394.6,205.9 383.6,205.9 383.2,216.4 383.5,227 383.7,237.6 383.4,248.3 384.1,258.9 383.6,269.6 
	383.7,281.2 383.5,292.9 383.7,304.5 384.1,316.2 384.2,332.1 384.1,346.9 383.9,351.3 394.3,351.1 404.6,351.4 414.9,351.8 
	427.1,352.7 439.2,353.8 451.3,353.7 463.2,353.8 475.2,354.1 475.5,343 476.3,332.1 476.8,320.4 476.3,308.7 476,297.1 
	475.7,285.4 476.4,271.3 476.2,257.1 476.7,245 476.7,232.8 477,220.7 477.1,208.5 "/>
<polyline class="st1" points="425.3,168.8 441.8,168.8 451.6,169.1 462.6,167.6 "/>
<polyline class="st1" points="446.2,151.6 456,152.1 465.8,153.2 475.5,154.9 485.4,158.6 494.6,163.6 504.1,167.7 513.3,172.7 
	522.5,178.2 531.9,183.6 542.6,188.9 553.2,194.4 565,198.8 575.3,205.1 581.6,207.1 592.6,206.7 603.6,206.8 614.6,206.4 
	625.6,206.7 636.6,207.2 647.6,206.7 656.6,207.3 665.5,206.7 677.9,207.6 690.3,208.7 706.2,208.4 716.4,210.3 726.4,212.9 
	736.5,215.2 746.4,218.3 753.7,224.5 762.5,234.8 771.2,245.2 779.2,252.9 787.5,260.2 792.7,269.1 797.1,278.5 802.6,287.3 
	804.8,294.4 802.5,294.7 790,297.2 779.3,296.5 768.7,296.5 756.3,294.4 743.9,292.3 733.9,292.3 724.1,291.5 710.2,289 
	696.3,286.4 684.1,285.7 671.9,285.1 663.3,285.2 654.6,285.8 641.4,285.2 628.3,285.1 614.4,285.7 607.3,285.2 605.1,279.4 
	603,274 597.5,271.3 587.8,271.4 578.2,271.3 571.7,271.1 554.8,274.7 548,277.2 "/>
<polyline class="st1" points="524.6,371.7 527.9,365.1 540.1,360 550.5,356.2 563.8,353.6 576.8,350.4 589.5,346.6 598.5,347.1 
	610.1,347.3 621.6,348.5 633.1,349.5 644.7,349.8 656.2,350.4 667.7,351.5 679.3,351.8 690.8,352.8 702.3,354 713.8,354.7 
	725.4,355.4 736.9,355.9 751.3,356.9 759.5,356.6 762.8,346.9 761.5,337.8 760.4,328.6 761,324.8 766.3,316.3 776.2,309.4 
	787.5,300.7 790.2,297 "/>
<polyline class="st1" points="760.2,328.8 743.9,329 733,327.2 722.1,325.9 711.1,325.4 699,324.9 686.8,325.1 673.9,323.9 
	661,322.5 649.6,323.5 638.3,322.6 627.8,322.4 617.4,322.5 602,322.1 598.5,321.9 "/>
<polyline class="st1" points="600.2,276 600.2,285.9 600.2,295.3 600.9,304.8 600.8,317.9 600.2,331.1 600.6,340 598.9,347.1 "/>
<polyline class="st1" points="664.2,285.4 663.7,296.8 663.7,307.3 664.4,316.2 664.1,321.8 "/>
<polyline class="st1" points="725.3,293.3 725.5,304.7 725.7,315.1 725.5,324.1 725.6,329.6 "/>
<polyline class="st1" points="772.2,296.9 764,305.6 760.1,311.4 756.4,318.2 756.2,328.6 "/>
<polyline class="st1" points="641.8,206.9 641.3,194.9 641.5,186.7 642.7,179 642.9,171 648.4,170.9 655.3,170.8 659,170.8 
	659.3,172.3 659.4,181.6 658.7,190.9 658.8,196.9 658.6,202.3 659.2,208.5 "/>
<polyline class="st1" points="642.6,170.7 636.4,171.7 628.2,174.1 628.3,189.7 628.1,198.6 629.8,205.2 628.3,206.7 "/>
<polyline class="st1" points="726.5,167.9 725.7,181 725.9,197.4 723.7,210.5 "/>
<polyline class="st1" points="710.6,181.6 722.2,181.3 733.9,180.9 743.1,181.5 "/>
<polyline class="st1" points="339.8,242.3 340.2,228 339.8,215.2 340,203.2 340.3,191.9 340.1,180.5 340.6,169.2 340.4,157.8 
	340.2,146.5 339.9,135.1 340.2,123.8 340.1,112.4 340.5,101.1 340.4,89.7 340.1,78.3 350.8,77.5 363,79.4 373.3,81 372.6,93.2 
	373.1,105.2 372.7,117.2 372.7,129.3 373.3,141.3 372.9,153.3 373.4,164.2 373.3,175.1 372.9,186 373.1,197 372.9,206 373.4,215 "/>
<polyline class="st1" points="361.1,224.4 361.9,210.5 361.3,199.9 361.9,189.2 361.4,178.6 361.4,167.9 361.7,156.3 361.9,144.7 
	361.3,133.2 361.4,121.6 361.6,110 361.6,99.7 361.3,89.3 361.7,79 369.8,71.8 382.4,74 383.4,83.5 384,88.5 "/>
<polygon class="st1" points="385.9,89.7 379.6,92.8 375.5,104.7 375.6,109.3 389.5,108.2 390.7,102.7 389.1,92.8 "/>
<polyline class="st1" points="382.4,110 380.8,115.8 383.2,117.5 383.9,113.7 383.4,109.1 "/>
<polyline class="st1" points="317.1,372.1 308.7,378.5 299.6,384.4 314.9,383.9 327.3,384.9 340,385.1 352.7,384.4 365.3,384.1 
	377.6,384.6 389.9,384.3 402.2,384.7 414.5,384.4 426.8,384.6 439.1,384.6 451.4,387.7 "/>
<polygon class="st1" points="494.8,312.6 481.9,313.1 469,312.4 456.1,312.6 444.6,312.4 433,313.1 421.4,313 410.2,312.5 
	399.1,312.3 387.7,313 377.3,312.8 366.9,312.4 356.5,312.7 354.2,321.7 354.5,335.3 354.4,349 363.3,354.3 375.6,354 387.8,353.4 
	400,353.5 412.3,353.8 424.5,353.1 436.7,353.7 447.2,352.5 457.8,351.5 468.3,351.5 478.9,350.9 489.4,350.3 494.9,350 
	494.7,337.5 494.4,325.1 "/>
<polyline class="st1" points="405.2,205.8 405.1,219.4 405.1,230.7 405.2,241.9 405.4,253.2 403.8,263.1 403.4,273 402.2,282.9 
	403.3,297.2 403.8,311.5 404.1,322.5 405,333.4 404.8,344.5 404.7,351.4 "/>
<polyline class="st1" points="431.5,205.8 431.3,218.8 431.7,231.8 431.6,241.4 431.2,251 431,260.6 431.7,271.5 431.7,282.4 
	431.1,293.3 431.7,302.4 431.4,311.5 431.5,323.3 431.6,335.1 431.7,346.9 431.7,352.9 "/>
<polyline class="st1" points="454.6,205.8 454.5,218.8 454.2,231.8 454.6,241.4 454.2,251 454.2,260.6 454.3,271.5 454.4,282.4 
	454.4,293.3 454,302.4 454.4,311.5 454.4,323.3 454.2,335.1 454.5,346.9 453.9,352.9 "/>
<polyline class="st1" points="384.1,225 396.3,224 408.6,223.7 420.7,224.8 432.9,225.9 445.1,226.6 457.3,226.2 473,226 "/>
<polyline class="st1" points="381.7,247.6 393.2,247.3 404.7,246.8 416.2,246.9 427.6,246 439.1,246 450.6,245.4 462,245.2 
	473.5,244.9 "/>
<polyline class="st1" points="383.6,267.4 392.7,266.7 401.8,266.2 413.1,266 424.4,265.9 435.7,265.7 446.9,265.9 458.2,265.5 
	467.3,265 476.5,264.9 "/>
<polyline class="st1" points="383.2,285.5 386.6,284.7 397.8,284.5 409,284.7 420.1,284.7 431.3,284.5 443.6,284.4 456,284.4 
	468.3,283.8 476.5,282.1 "/>
<polyline class="st1" points="386.2,301.3 399.4,299.1 410.3,298.1 421.3,298.2 432.2,297.8 443.1,297.5 454.1,297.2 465,296.6 
	478.5,294.9 "/>
<polyline class="st1" points="558.5,274 558.6,285.6 558.8,297.2 559.2,308.8 558.9,320.5 559.4,332.1 "/>
<polyline class="st1" points="569.9,272 570.6,283.2 570.2,294.5 571.2,305.7 571.1,316.9 571.3,328.1 "/>
<polyline class="st1" points="582.2,269.5 582.1,281.7 581.7,293.8 581.8,305.9 581.4,318 580.9,330.1 "/>
<polyline class="st1" points="592.3,271.5 592.5,282.8 592.3,294 591.7,305.2 590.9,316.4 590.7,327.6 "/>
<polyline class="st1" points="599.5,327.4 588.6,328.2 577.8,329.3 566.9,330.9 556.2,332.7 545.6,335.5 534.8,337.1 524.1,339.4 
	"/>
<polyline class="st1" points="552,275.5 551.5,280.9 549.8,293.8 549.1,306.8 549.5,319 549.1,331.2 548.6,345.1 547.1,358.9 "/>
</svg>
