<?xml version="1.0" encoding="utf-8"?>
<!-- Generator: Adobe Illustrator 25.2.1, SVG Export Plug-In . SVG Version: 6.00 Build 0)  -->
<svg version="1.1" id="Layer_1" xmlns="http://www.w3.org/2000/svg" xmlns:xlink="http://www.w3.org/1999/xlink" x="0px" y="0px"
	 viewBox="0 0 300 300" style="enable-background:new 0 0 300 300;" xml:space="preserve">
<style type="text/css">
	.st0{fill:#FFFFFF;stroke:#000000;stroke-width:2;stroke-miterlimit:10;}
	.st1{fill:#007C00;stroke:#000000;stroke-width:2;stroke-miterlimit:10;}
	.st2{fill:#E60006;stroke:#000000;stroke-width:2;stroke-miterlimit:10;}
</style>
<circle class="st0" cx="150" cy="150.5" r="141"/>
<path class="st1" d="M125.6,83.3c0,0,14.4,27.2,47.8,3.3c-0.1,36.6,42.1,33.3,42.1,33.3s-14.9,30.7,17.3,26.2
	c-11,26.7,18.9,36.4,18.9,36.4s-35.6-6.6-44.2,22.9c-18.4-13.5-26.7,1.2-31.1,14.7c-14.3-16.9-31.9-15.5-41.4,2.8
	c-6.4-26.6-24.4-36.5-40.2-26.6c0,0,7-33.2-15.7-36.1c15.1-11.9,16.3-26.6,8.4-35.6c-4.5-5.6-29.2-17.5-29.2-17.5
	c1.2-2.1,8.4-13,10.1-14.6c0,0,10.9,8.7,22.4,13.9C116.2,117.9,125.6,83.3,125.6,83.3z"/>
<path class="st2" d="M150,9.5C72.4,9.5,9.5,72.4,9.5,150S72.4,290.5,150,290.5S290.5,227.6,290.5,150S227.6,9.5,150,9.5z M150,37.3
	c25.6,0,49.1,8.5,68.1,22.9L60.2,218.1c-14.4-18.9-22.9-42.5-22.9-68.1C37.3,87.8,87.8,37.3,150,37.3z M150,262.7
	c-25.6,0-49.1-8.5-68.1-22.9L239.8,81.9c14.4,18.9,22.9,42.5,22.9,68.1C262.7,212.2,212.2,262.7,150,262.7z"/>
</svg>
